<svg width="1470" height="121" viewBox="0 0 1470 121" fill="none" xmlns="http://www.w3.org/2000/svg">
<path fill-rule="evenodd" clip-rule="evenodd" d="M1468.94 0.500272L1469.45 0.483704V1.00001C1469.45 32.99 1468.59 47.9248 1466.03 58.5546C1464.25 65.9306 1461.65 71.2464 1457.99 78.7196C1456.38 82.0103 1454.57 85.7194 1452.53 90.2069L1452.52 90.2284L1452.51 90.249C1445.42 102.589 1435.09 109.409 1422.73 113.508C1410.4 117.597 1396.04 118.987 1380.87 120.456L1380.81 120.462L158.226 120.484L158.196 120.481C114.954 115.223 90.7227 110.485 53.4285 92.4567C52.6968 92.1558 51.9708 91.8566 51.2498 91.5594C35.5598 85.0931 22.164 79.5721 0.952978 77.5685L0.5 77.5257L0.500021 35.5H1218.74V2.50001H1404.91C1421.76 1.98707 1437.76 1.48717 1449.56 1.11549C1455.46 0.929619 1460.3 0.775814 1463.67 0.668477L1468.94 0.500317L1468.94 0.500272C1468.94 0.500272 1468.94 0.500272 1468.95 1.00001L1468.94 0.500272ZM1468.45 1.5163L1463.7 1.66797C1460.33 1.77531 1455.49 1.92912 1449.59 2.11499C1437.79 2.48674 1421.78 2.98674 1404.93 3.49978L1404.93 3.50001H1219.74V36.5H1.50002L1.5 76.6163C22.6004 78.6698 36.0352 84.207 51.6143 90.6281C52.3454 90.9294 53.0812 91.2327 53.8228 91.5376L53.8367 91.5433L53.8503 91.5499C91.0045 109.512 115.112 114.234 158.286 119.484L1380.76 119.462C1395.96 117.99 1410.21 116.606 1422.41 112.559C1434.59 108.52 1444.7 101.836 1451.63 89.7714C1453.7 85.2138 1455.53 81.4765 1457.14 78.1802C1460.77 70.768 1463.31 65.5855 1465.06 58.3204C1467.57 47.8818 1468.44 33.1697 1468.45 1.5163Z" fill="black"/>
</svg>
