<svg width="1471" height="167" viewBox="0 0 1471 167" fill="none" xmlns="http://www.w3.org/2000/svg">
<path fill-rule="evenodd" clip-rule="evenodd" d="M45.9895 0.5L1327.02 0.500013L1327.03 0.501178C1385.66 4.50997 1443.8 35.6718 1470.2 83.6882L1470.33 83.9312L1470.19 84.1732C1440.91 136.502 1381.14 160.987 1332.81 166.426L1332.79 166.429L40.607 166.528L40.5504 166.515C12.8804 159.986 7.31172 157.471 0.737967 153.426L0.500017 153.279L0.5 149.614L0.873791 149.516C6.55866 148.033 12.2402 145.19 16.4908 141.617C20.7537 138.034 23.5 133.786 23.5 129.5C23.5 120.832 15.7826 112.951 0.801198 106.459L0.500002 106.328V61.1801L0.790473 61.046C7.27045 58.0553 12.963 54.7077 17.0298 50.8258C21.09 46.9501 23.5 42.5725 23.5 37.5C23.5 32.4932 20.5372 28.9994 16.1535 25.974C13.962 24.4615 11.4387 23.0829 8.79203 21.701C8.15734 21.3696 7.51521 21.0379 6.86926 20.7042C4.83054 19.6509 2.75369 18.578 0.75194 17.4341L0.50001 17.2902L0.500009 14.691L0.776402 14.5528C7.8016 11.0402 16.2364 7.65052 24.3393 5.07825C32.4344 2.50847 40.2339 0.742964 45.9789 0.500445L45.9895 0.5ZM46.0106 1.5C40.3982 1.73868 32.7023 3.47261 24.6419 6.03137C16.6906 8.55553 8.41929 11.8712 1.50001 15.3095L1.50001 16.7092C3.4032 17.7879 5.36623 18.802 7.31464 19.8087C7.96392 20.1441 8.61158 20.4787 9.25486 20.8146C11.9051 22.1983 14.4755 23.601 16.7215 25.151C21.2128 28.2506 24.5 32.0068 24.5 37.5C24.5 42.9275 21.91 47.5499 17.7202 51.5492C13.5992 55.4829 7.90196 58.8434 1.5 61.8194V105.672C16.3281 112.158 24.5 120.231 24.5 129.5C24.5 134.214 21.4963 138.716 17.1342 142.383C12.8535 145.981 7.19002 148.842 1.5 150.384L1.50001 152.72C7.8216 156.588 13.4538 159.092 40.7234 165.528L1332.73 165.429C1380.81 160.012 1440.08 135.691 1469.18 83.9269C1442.93 36.4165 1385.25 5.48925 1326.98 1.50001L46.0106 1.5Z" fill="black"/>
</svg>
