<svg width="1471" height="167" viewBox="0 0 1471 167" fill="none" xmlns="http://www.w3.org/2000/svg">
<g clip-path="url(#clip0_1_28)">
<path d="M46 1C34.6417 1.47948 15 8.00001 1.00001 15L1.00001 17C11.5 23 24 27 24 37.5C24 48 14 55.5 1 61.5V106C16 112.5 24 120.5 24 129.5C24 138.5 12.5 147 1 150L1.00001 153C7.49999 157 13 159.5 40.6652 166.028L1332.76 165.929C1381 160.5 1440.59 136.064 1469.76 83.9291C1443.47 36.0945 1385.5 4.99999 1327 1.00001L46 1Z" stroke="black" stroke-width="3"/>
</g>
<defs>
<clipPath id="clip0_1_28">
<rect width="1471" height="167" fill="white"/>
</clipPath>
</defs>
</svg>
